<svg width="48" height="46" viewBox="0 0 48 46" fill="none" xmlns="http://www.w3.org/2000/svg">
<path d="M34.8 0C30.624 0 26.616 2.03052 24 5.23924C21.384 2.03052 17.376 0 13.2 0C5.808 0 0 6.06649 0 13.7875C0 23.2632 8.16 30.9842 20.52 42.7161L24 46L27.48 42.691C39.84 30.9842 48 23.2632 48 13.7875C48 6.06649 42.192 0 34.8 0ZM24.24 38.9809L24 39.2316L23.76 38.9809C12.336 28.1766 4.8 21.0322 4.8 13.7875C4.8 8.77384 8.4 5.01362 13.2 5.01362C16.896 5.01362 20.496 7.49537 21.768 10.9297H26.256C27.504 7.49537 31.104 5.01362 34.8 5.01362C39.6 5.01362 43.2 8.77384 43.2 13.7875C43.2 21.0322 35.664 28.1766 24.24 38.9809Z" fill="#515151"/>
</svg>
