<svg width="60" height="60" viewBox="0 0 60 60" fill="none" xmlns="http://www.w3.org/2000/svg">
<path d="M56.5757 41.1762C52.4846 41.1762 48.5267 40.511 44.8348 39.3136C43.6707 38.9145 42.3735 39.2138 41.4755 40.1118L36.2537 46.6641C26.841 42.174 18.027 33.6926 13.3374 23.9474L19.8231 18.4262C20.7211 17.4949 20.9872 16.1977 20.6213 15.0336C19.3907 11.3417 18.7588 7.38377 18.7588 3.29276C18.7588 1.49671 17.2621 0 15.466 0H3.95797C2.16192 0 0 0.798246 0 3.29276C0 34.1915 25.7102 59.8684 56.5757 59.8684C58.9371 59.8684 59.8684 57.773 59.8684 55.9437V44.4689C59.8684 42.6729 58.3717 41.1762 56.5757 41.1762Z" fill="#B7B7B7"/>
</svg>
