<svg width="800" height="800" viewBox="0 0 800 800" fill="none" xmlns="http://www.w3.org/2000/svg">
<g clip-path="url(#clip0_4670_8170)">
<path fill-rule="evenodd" clip-rule="evenodd" d="M355.854 6.75488C285.477 6.77715 216.688 27.6665 158.183 66.7816C99.6782 105.897 54.0852 161.481 27.1688 226.507C0.252432 291.532 -6.77858 363.079 6.96478 432.1C20.7081 501.121 54.6087 564.518 104.38 614.273C154.151 664.029 217.559 697.909 286.584 711.631C355.61 725.352 427.154 718.299 492.171 691.362C557.188 664.425 612.758 618.814 651.855 560.297C690.951 501.78 711.819 432.984 711.819 362.608C711.774 268.224 674.253 177.72 607.503 110.991C540.753 44.2625 450.237 6.7698 355.854 6.75488ZM355.854 63.0473C415.101 63.0473 473.018 80.6162 522.28 113.532C571.543 146.448 609.938 193.233 632.611 247.971C655.284 302.708 661.216 362.94 649.658 421.049C638.099 479.158 609.569 532.534 567.675 574.429C525.78 616.323 472.404 644.853 414.295 656.412C356.186 667.97 295.954 662.038 241.217 639.365C186.479 616.692 139.694 578.297 106.778 529.034C73.8622 479.772 56.2933 421.855 56.2933 362.608C56.3306 283.171 87.9033 206.998 144.074 150.828C200.244 94.6573 276.417 63.0846 355.854 63.0473Z" fill="#9C9C9C"/>
<path fill-rule="evenodd" clip-rule="evenodd" d="M791.779 745.368L615.134 568.723C612.537 566.034 609.431 563.89 605.998 562.415C602.564 560.94 598.87 560.163 595.133 560.131C591.396 560.098 587.689 560.811 584.23 562.226C580.771 563.641 577.629 565.731 574.986 568.374C572.343 571.016 570.253 574.159 568.838 577.618C567.423 581.077 566.711 584.783 566.743 588.521C566.776 592.258 567.552 595.951 569.027 599.385C570.502 602.819 572.647 605.925 575.335 608.521L751.981 785.083C754.577 787.771 757.683 789.915 761.117 791.39C764.551 792.865 768.244 793.642 771.981 793.674C775.718 793.707 779.425 792.995 782.884 791.579C786.343 790.164 789.486 788.074 792.128 785.431C794.771 782.789 796.861 779.646 798.276 776.187C799.691 772.728 800.403 769.022 800.371 765.284C800.339 761.547 799.562 757.854 798.087 754.42C796.612 750.986 794.468 747.88 791.779 745.284V745.368Z" fill="#9C9C9C"/>
</g>
<defs>
<clipPath id="clip0_4670_8170">
<rect width="800" height="800" fill="white"/>
</clipPath>
</defs>
</svg>
